<svg width="508" height="275" viewBox="0 0 508 275" fill="none" xmlns="http://www.w3.org/2000/svg">
<path d="M0.841797 137.488L55.6037 121.05V0.536282H0.841797V137.488Z" fill="#646569"/>
<path d="M55.6037 274.439V153.926L0.841797 137.488V274.439H55.6037Z" fill="#646569"/>
<path d="M83.0312 137.488L137.793 121.05V0.536282H83.0312V137.488Z" fill="#646569"/>
<path d="M83.0312 274.439H137.793V153.926L83.0312 137.488V274.439Z" fill="#646569"/>
<path d="M165.174 112.854L219.983 96.4162V0.536282H165.174V112.854Z" fill="#646569"/>
<path d="M165.174 274.439H219.983V178.606L165.174 162.168V274.439Z" fill="#646569"/>
<path d="M247.364 137.488L302.172 121.05V0.536282H247.364V137.488Z" fill="#646569"/>
<path d="M247.364 274.439H302.172V153.926L247.364 137.488V274.439Z" fill="#646569"/>
<path d="M329.553 112.854L384.315 96.4162V0.536282H329.553V112.854Z" fill="#646569"/>
<path d="M329.553 274.439H384.315V178.606L329.553 162.168V274.439Z" fill="#646569"/>
<path d="M411.742 88.174L466.504 71.7361V0.536282H411.742V88.174Z" fill="#646569"/>
<path d="M411.742 274.439H466.504V203.239L411.742 186.801V274.439Z" fill="#646569"/>
<path d="M507.576 14.2268C507.576 21.7705 501.429 27.9172 493.885 27.9172C486.342 27.9172 480.195 21.7705 480.195 14.0871C480.195 6.40363 486.388 0.489716 494.118 0.489716C501.429 0.489716 507.576 6.72959 507.576 14.1802V14.2268ZM482.477 14.1336C482.477 20.0475 487.739 25.6821 493.885 25.6821C500.032 25.6821 505.294 20.2804 505.294 14.2268C505.294 8.17315 500.079 2.63176 494.072 2.63176C488.065 2.63176 482.477 8.12658 482.477 14.1336ZM499.939 18.0452C499.939 18.4643 499.939 18.8368 499.939 19.2094C499.939 20.2338 500.079 21.1186 500.963 21.6774V22.2827H498.076C497.797 21.5842 497.611 20.5598 497.611 19.5819V18.1849C497.611 16.4619 496.772 15.3909 495.096 15.3909H490.067V22.2362H487.646V5.93797H495.189C498.356 5.93797 500.312 7.61435 500.312 10.4083C500.312 12.3175 499.613 13.5748 498.169 14.1802C499.613 14.8787 499.939 16.5551 499.939 17.9986V18.0452ZM494.724 8.12658H490.02V13.2489H494.724C496.586 13.2489 497.75 12.6435 497.75 10.6877C497.75 8.35941 496.447 8.12658 494.724 8.12658Z" fill="#646569"/>
</svg>
