<svg width="1198" height="706" viewBox="0 0 1198 706" fill="none" xmlns="http://www.w3.org/2000/svg">
<path d="M0.924561 352.864L141.681 310.561V0.341797H0.924561V352.864Z" fill="#646569"/>
<path d="M141.681 705.389V395.169L0.924561 352.864V705.389H141.681Z" fill="#646569"/>
<path d="M212.058 352.864L352.811 310.561V0.341797H212.058V352.864Z" fill="#646569"/>
<path d="M212.058 705.389H352.811V395.169L212.058 352.864V705.389Z" fill="#646569"/>
<path d="M423.191 289.412L563.944 247.11V0.341797H423.191V289.412Z" fill="#646569"/>
<path d="M423.191 705.389H563.944V458.621L423.191 416.319V705.389Z" fill="#646569"/>
<path d="M634.324 352.864L775.077 310.561V0.341797H634.324V352.864Z" fill="#646569"/>
<path d="M634.324 705.389H775.077V395.169L634.324 352.864V705.389Z" fill="#646569"/>
<path d="M845.457 289.412L986.21 247.11V0.341797H845.457V289.412Z" fill="#646569"/>
<path d="M845.457 705.389H986.21V458.621L845.457 416.319V705.389Z" fill="#646569"/>
<path d="M1056.59 225.957L1197.34 183.655V0.341797H1056.59V225.957Z" fill="#646569"/>
<path d="M1056.59 705.389H1197.34V522.076L1056.59 479.774V705.389Z" fill="#646569"/>
</svg>
